<?xml version="1.0" encoding="UTF-8" standalone="no"?>
<svg
   viewBox="0 0 512 512"
   version="1.1"
   id="svg1"
   sodipodi:docname="envelope-solid.svg"
   inkscape:version="1.3.2 (091e20e, 2023-11-25, custom)"
   xmlns:inkscape="http://www.inkscape.org/namespaces/inkscape"
   xmlns:sodipodi="http://sodipodi.sourceforge.net/DTD/sodipodi-0.dtd"
   xmlns="http://www.w3.org/2000/svg"
   xmlns:svg="http://www.w3.org/2000/svg">
  <defs
     id="defs1" />
  <sodipodi:namedview
     id="namedview1"
     pagecolor="#505050"
     bordercolor="#eeeeee"
     borderopacity="1"
     inkscape:showpageshadow="0"
     inkscape:pageopacity="0"
     inkscape:pagecheckerboard="0"
     inkscape:deskcolor="#505050"
     showgrid="false"
     inkscape:zoom="1.6816406"
     inkscape:cx="256"
     inkscape:cy="256"
     inkscape:window-width="1920"
     inkscape:window-height="1057"
     inkscape:window-x="-8"
     inkscape:window-y="-8"
     inkscape:window-maximized="1"
     inkscape:current-layer="svg1" />
  <!--!Font Awesome Free 6.7.2 by @fontawesome - https://fontawesome.com License - https://fontawesome.com/license/free Copyright 2025 Fonticons, Inc.-->
  <path
     d="M48 64C21.5 64 0 85.5 0 112c0 15.1 7.1 29.3 19.2 38.4L236.8 313.6c11.4 8.5 27 8.5 38.4 0L492.8 150.4c12.1-9.1 19.2-23.3 19.2-38.4c0-26.5-21.5-48-48-48L48 64zM0 176L0 384c0 35.3 28.7 64 64 64l384 0c35.3 0 64-28.7 64-64l0-208L294.4 339.2c-22.8 17.1-54 17.1-76.8 0L0 176z"
     id="path1" />
  <path
     style="fill:#ffffff;stroke-width:0;fill-opacity:1"
     d="m 248.43159,318.70366 c -1.87319,-0.45408 -4.76768,-1.51572 -6.4322,-2.3592 C 237.7043,314.16798 16.292981,147.95395 13.219723,144.59901 8.315841,139.24564 4.0501957,131.69075 2.2014097,125.08447 0.78642498,120.02829 0.49075384,117.58309 0.5251741,111.22197 0.64386599,89.286856 16.510746,69.944931 38.114177,65.400509 c 6.331931,-1.331963 429.439713,-1.331963 435.771643,0 21.79757,4.58526 37.53102,23.919463 37.56362,46.160421 0.0186,12.67575 -4.27642,23.87606 -12.66916,33.03808 -3.06193,3.34258 -224.47635,169.5648 -228.7548,171.73285 -6.19844,3.14099 -14.60962,4.06484 -21.59389,2.3718 z"
     id="path2" />
  <path
     style="fill:#ffffff;fill-opacity:1;stroke-width:0"
     d="M 52.10713,446.55565 C 39.588239,444.06819 29.170403,438.55187 19.776515,429.43635 10.407841,420.34531 4.6869532,410.02868 1.4230956,396.33914 0.42617037,392.15775 0.34719398,385.16626 0.15856598,284.39489 0.04790952,225.27851 0.10153085,176.91057 0.2777245,176.91057 c 0.17619365,0 48.9551225,36.47423 108.3976155,81.05385 59.4425,44.57961 109.68285,82.1402 111.64522,83.46798 10.75993,7.28033 21.86122,10.56867 35.67944,10.56867 13.81822,0 24.91951,-3.28834 35.67944,-10.56867 1.96237,-1.32778 52.20272,-38.88837 111.64522,-83.46798 59.44249,-44.57962 108.21183,-81.05385 108.3763,-81.05385 0.56844,0 0.28918,204.75133 -0.28877,211.72404 -0.66502,8.02337 -2.63984,15.4637 -5.95766,22.44613 -3.31649,6.97965 -6.09847,10.96754 -11.77345,16.87695 -9.54283,9.93704 -20.84068,16.09627 -34.15981,18.62287 -4.17445,0.79188 -28.50928,0.89245 -204.03295,0.84323 C 89.591348,447.37729 55.510084,447.2318 52.10713,446.55565 Z"
     id="path3" />
</svg>
